<svg xmlns="http://www.w3.org/2000/svg" width="237" height="216" viewBox="0 0 237 216">
    <g fill="none" fill-rule="evenodd">
        <path fill="#ADDAD6" d="M89.361 151.116l75.844 64.257.009.002 70.906-102.771-87.761-46.999zM71.652.237L.744 103.012l88.584 48.083 58.997-85.51z"/>
        <path fill="#CBEAE7" d="M80.101 13.287l-7.284-6.38L8.26 101.722l8.076 4.113"/>
        <path fill="#E5F2F0" d="M23.569 110.776l-8.075-4.12 64.557-94.813 7.284 6.381z"/>
        <path fill="#CBEAE7" d="M221.168 110.426l8.601 4.454-65.136 94.413-6.778-6.01"/>
        <path fill="#E5F2F0" d="M150.619 198.354l6.778 6.01 65.14-94.415-8.602-4.454z"/>
        <path fill="#FFF" d="M150.06 199.35l-58.3-51.71 54.195-78.556 69.245 35.848z"/>
        <path fill="#F2FCFB" d="M155.955 74.261l-10-5.177-54.197 78.556 58.301 51.707 7.645-11.08c-48.66-18.588-40.107-67.112-1.749-114.006"/>
        <path stroke="#294859" stroke-linecap="round" stroke-linejoin="round" stroke-width="1.158" d="M153.896 90.73l35.793 18.924M145.957 102.24l34.735 20.453M138.019 113.745l33.68 21.988M130.08 125.254l33.853 21.733M122.14 136.76l32.972 23.011M114.202 148.265l31.56 25.058"/>
        <path fill="#FFF" d="M22.487 111.768l69.243 35.854 54.197-78.559-58.3-51.71z"/>
        <path stroke="#294859" stroke-linecap="round" stroke-linejoin="round" stroke-width="1.158" d="M122.822 69.4L92.317 42.804M114.884 80.905L83.32 55.85M106.944 92.414l-32.62-23.525M99.003 103.919L66.56 80.139M91.065 115.424l-33.326-22.5M83.126 126.933L48.39 106.48"/>
        <path fill="#F2FCFB" d="M91.73 147.62l54.195-78.555-8.57-7.605c-19.429 44.474-67.806 94.624-101.274 30.605l-13.595 19.702L91.73 147.62z"/>
        <path fill="#294859" d="M143.891 72.639c-1.353 2.237-3.2 5.489-5.571 9.289-4.704 7.625-11.228 17.617-17.988 27.445-6.786 9.813-13.808 19.463-19.272 26.567-2.707 3.562-5.097 6.444-6.708 8.505a144.79 144.79 0 0 1-2.622 3.175s.714-1.32 2.036-3.578c1.353-2.237 3.196-5.493 5.569-9.29 4.7-7.626 11.227-17.617 17.99-27.444 6.789-9.81 13.813-19.455 19.276-26.559 2.709-3.568 5.096-6.451 6.708-8.511a141.629 141.629 0 0 1 2.617-3.174s-.715 1.317-2.035 3.575z"/>
        <path fill="#FF552B" d="M136.785 60.982l-10.25 15.222 4.718-1.189 1.316 4.835 9.366-14.461z"/>
    </g>
</svg>
