<svg xmlns="http://www.w3.org/2000/svg" xmlns:xlink="http://www.w3.org/1999/xlink" width="67" height="71" viewBox="0 0 67 71">
    <defs>
        <path id="a" d="M.125.351h32.061V54H.125z"/>
        <path id="c" d="M0 .775h15.244v7.873H0z"/>
        <linearGradient id="e" x1="66.894%" x2="1.99%" y1="79.625%" y2="31.276%">
            <stop offset="0%" stop-color="#37CFB1"/>
            <stop offset="100%" stop-color="#FDFFBF"/>
        </linearGradient>
        <path id="f" d="M.125.351h16.942V54H.125z"/>
    </defs>
    <g fill="none" fill-rule="evenodd">
        <g transform="rotate(40 9.08 54.615)">
            <mask id="b" fill="#fff">
                <use xlink:href="#a"/>
            </mask>
            <path fill="#F2FCFB" d="M13.97 15.65L10.71.351 1.645 2.284l3.26 15.299-4.746 32.87c-.31 2.136 1.605 3.926 3.715 3.476l25.856-5.508c2.11-.45 3.128-2.864 1.976-4.69L13.97 15.651z" mask="url(#b)"/>
        </g>
        <g transform="rotate(40 18.322 54.867)">
            <mask id="d" fill="#fff">
                <use xlink:href="#c"/>
            </mask>
            <path fill="#E6F6F4" d="M13.14.802L.99 3.39a1.252 1.252 0 0 0-.963 1.485L.62 7.657a1.251 1.251 0 0 0 1.484.963l12.15-2.589a1.25 1.25 0 0 0 .962-1.484l-.593-2.783A1.25 1.25 0 0 0 13.14.802" mask="url(#d)"/>
        </g>
        <path fill="url(#e)" d="M16.319 25.818l-8.116 1.73-3.762 29.125a1.196 1.196 0 0 0 1.434 1.322l24.982-5.323a1.196 1.196 0 0 0 .771-1.792L16.319 25.818z" transform="rotate(40 18.631 54.98)"/>
        <path stroke="#FFF" stroke-linecap="round" stroke-linejoin="round" stroke-width="1.027" d="M25.651 40.261a1.126 1.126 0 1 1-1.988-1.055 1.126 1.126 0 0 1 1.988 1.055z"/>
        <path stroke="#FFF" stroke-linecap="round" stroke-linejoin="round" stroke-width="2.054" d="M21.532 46.817a2.012 2.012 0 1 1-3.554-1.887 2.012 2.012 0 0 1 3.554 1.887z"/>
        <path stroke="#FFF" stroke-linecap="round" stroke-linejoin="round" stroke-width="1.027" d="M28.692 46.885a1.367 1.367 0 1 1-2.415-1.283 1.367 1.367 0 0 1 2.415 1.283z"/>
        <g transform="rotate(40 9.08 54.615)">
            <mask id="g" fill="#fff">
                <use xlink:href="#f"/>
            </mask>
            <path fill="#E0F4F2" d="M7.668 22.827c.484-3.343.688-5.08.225-7.26C7.428 13.387 5.65 3.263 5.65 3.263l5.435-1.158L10.71.351 1.644 2.284l3.26 15.298L.158 50.453c-.31 2.137 1.605 3.927 3.716 3.477l13.193-2.81c-15.963.612-11.092-16.605-9.4-28.293" mask="url(#g)"/>
        </g>
        <path fill="#FFF" d="M34.844 35.994s-2.916 13.371-3.168 22.47c1.1-3.85 2.858-19.09 3.168-22.47"/>
    </g>
</svg>
