<svg xmlns="http://www.w3.org/2000/svg" width="140" height="140" viewBox="0 0 140 140">
    <defs>
        <radialGradient id="a" cx="17.784%" cy="16.69%" r="113.749%" fx="17.784%" fy="16.69%">
            <stop offset="0%" stop-color="#37CFB1"/>
            <stop offset="100%" stop-color="#FFF"/>
        </radialGradient>
    </defs>
    <g fill="none" fill-rule="evenodd">
        <path fill="url(#a)" d="M0 70.001C0 108.661 31.34 140 69.999 140 108.659 140 140 108.661 140 70.001S108.66 0 69.999 0C31.341 0 0 31.34 0 70.001"/>
        <path fill="#F2FCFB" d="M45.694 110.68l30.797 6.886s-1.761-10.922-13.605-13.71c-9.512-2.24-17.192 6.823-17.192 6.823"/>
        <path fill="#95E2D3" d="M62.886 103.856a13.251 13.251 0 0 0-2.444-.315c7.642 3.719 7.301 8.55 5.315 11.625l10.734 2.4s-1.761-10.921-13.605-13.71"/>
        <path stroke="#F2FCFB" stroke-linecap="round" stroke-width="2.075" d="M38.567 88.746c9.526 13.012 26.625 18.929 42.603 13.431 19.765-6.802 30.33-28.496 23.593-48.455-4.906-14.54-17.64-24.149-31.835-25.665"/>
        <path fill="#62CEFF" d="M97.224 56.07c5.412 16.04-3.076 33.475-18.962 38.94-15.884 5.467-33.15-3.105-38.565-19.145-5.413-16.042 3.077-33.477 18.963-38.943 15.884-5.465 33.151 3.106 38.564 19.147"/>
        <path fill="#006F9E" d="M85.96 72.517c-.22.451-.463.926-.725 1.418L71.433 65.87l7.225-12.988 11.395 6.624a46.019 46.019 0 0 1-4.093 13.012zM73.413 87.899l-10.759-6.253 7.127-12.81 13.746 8.033c-2.268 3.58-5.55 7.612-10.114 11.03zm-13.68-7.95L46.96 72.524c.209-5.067 1.389-10.21 3.543-14.952l16.36 9.56-7.13 12.817zm2.482-36.623l13.52 7.858-7.221 12.98-16.473-9.627c1.915-3.373 5.15-7.776 10.174-11.21zM88.152 75.64c.3-.56.582-1.104.833-1.618a49.326 49.326 0 0 0 4.163-12.718l5.627 3.27a30.98 30.98 0 0 0-.498-4.217l-4.617-2.682c.31-3.1.274-6.114-.101-8.925a30.32 30.32 0 0 0-5.024-5.774c1.592 3.571 2.225 8.038 1.926 12.838l-10.152-5.898 5.18-9.31a30.28 30.28 0 0 0-2.89-1.757l-5.213 9.369-11.836-6.88c4.065-2.065 9.075-3.424 15.176-3.4a30.147 30.147 0 0 0-8.78-2.426 34.899 34.899 0 0 0-9.754 3.874l-3.965-2.304a30.18 30.18 0 0 0-3.827 1.703l4.632 2.692c-3.93 2.936-7.285 6.753-9.906 11.358l-6.143-3.59a30.63 30.63 0 0 0-1.69 2.945l6.278 3.669c-2.168 4.677-3.442 9.738-3.851 14.784l-5.626-3.269c.065 1.402.242 2.811.503 4.22l4.972 2.888c.03 3.918.616 7.753 1.717 11.33a30.439 30.439 0 0 0 6.135 5.534c-2.63-4.288-4.118-9.453-4.443-14.882l11.104 6.453-5.217 9.375c.967.583 1.97 1.1 2.993 1.571l5.145-9.247 9.283 5.394c-3.449 2.084-7.508 3.778-12.27 4.762a30.044 30.044 0 0 0 6.753 1.62 41.169 41.169 0 0 0 8.822-4.462l5.028 2.923a30.44 30.44 0 0 0 3.83-1.702l-5.862-3.407c4.396-3.542 7.597-7.573 9.858-11.169l7.322 4.279a30.65 30.65 0 0 0 1.707-2.935l-7.322-4.279z"/>
        <path fill="#006F9E" d="M97.224 56.07a30.91 30.91 0 0 0-2.372-5.29c2.526 14.626-5.753 29.34-20.107 34.278C60.713 89.886 45.62 83.751 38.552 71.2c.27 1.559.624 3.118 1.147 4.665 5.412 16.04 22.679 24.612 38.563 19.145 15.886-5.465 24.374-22.9 18.962-38.94" opacity=".532"/>
    </g>
</svg>
