<svg xmlns="http://www.w3.org/2000/svg" width="112" height="112" viewBox="0 0 112 112">
    <defs>
        <linearGradient id="a" x1="86.161%" x2="12.347%" y1="107.02%" y2="-4.509%">
            <stop offset="0%" stop-color="#FFF"/>
            <stop offset="100%" stop-color="#37CFB1"/>
        </linearGradient>
    </defs>
    <g fill="none" fill-rule="evenodd">
        <path fill="url(#a)" d="M0 56c0 30.93 25.072 56 56 56s56-25.07 56-56c0-30.928-25.072-56-56-56S0 25.072 0 56"/>
        <path stroke="#37CFB1" stroke-width="2.075" d="M74.957 55.762c-.714 19.326-10.003 34.651-20.75 34.23-10.744-.42-18.877-16.427-18.163-35.754.714-19.324 10.002-34.651 20.747-34.23 10.746.42 18.878 16.427 18.166 35.754z"/>
        <path stroke="#37CFB1" stroke-width="2.075" d="M69.5 66.456C52.27 79.514 32.26 84.746 24.804 78.143c-7.455-6.603.467-22.541 17.697-35.6 17.228-13.057 37.239-18.29 44.695-11.686 7.456 6.603-.468 22.541-17.696 35.6z"/>
        <path stroke="#37CFB1" stroke-width="2.075" d="M69.773 44.194c16.12 14.262 22.8 30.66 14.917 36.63-7.883 5.967-27.34-.759-43.463-15.019-16.12-14.262-22.8-30.662-14.917-36.627 7.883-5.97 27.342.754 43.463 15.016z"/>
        <path fill="#3A89DB" d="M62.995 55.276a6.976 6.976 0 0 1-7.251 6.718 7.025 7.025 0 0 1-6.74-7.27 6.975 6.975 0 0 1 7.252-6.718 7.024 7.024 0 0 1 6.74 7.27"/>
    </g>
</svg>
