<svg xmlns="http://www.w3.org/2000/svg" width="243" height="47" viewBox="0 0 243 47">
    <g fill="#FFF" fill-rule="evenodd">
        <path d="M57.86 36V15h16.89v4.95H63.62v3.18H73.7v4.59H63.62v3.33H74.9V36H57.86zm18.48 0l7.2-10.68L76.64 15h6.69l3.72 5.91L90.8 15h6.54l-6.9 10.26L97.64 36h-6.69l-4.02-6.33L82.88 36h-6.54zm23.49 0V15h9c5.31 0 8.73 2.73 8.73 7.44 0 4.95-3.81 7.56-9.03 7.56h-2.88v6h-5.82zm5.82-10.56h2.76c2.07 0 3.33-1.08 3.33-2.79 0-1.8-1.26-2.76-3.36-2.76h-2.73v5.55zM120.02 36V15h16.89v4.95h-11.13v3.18h10.08v4.59h-10.08v3.33h11.28V36h-17.04zm20.01 0V15h9.93c3.21 0 5.43.84 6.84 2.25 1.23 1.23 1.86 2.85 1.86 4.98 0 3.21-1.71 5.34-4.32 6.45l5.01 7.32h-6.72l-4.23-6.36h-2.55V36h-5.82zm5.82-10.92h3.84c1.98 0 3.12-.96 3.12-2.55 0-1.65-1.2-2.49-3.15-2.49h-3.81v5.04zM166.73 36V20.1h-6.3V15h18.42v5.1h-6.3V36h-5.82zm14.67 0V15h5.82v15.9h10.17V36H181.4zm16.8 0l8.94-21.15h5.61L221.69 36h-6.24l-1.53-3.75h-8.1l-1.5 3.75h-6.12zm9.33-8.28h4.71l-2.34-5.97-2.37 5.97zm16.2 8.28V15h10.77c2.64 0 4.5.66 5.73 1.89.84.84 1.35 1.95 1.35 3.45 0 2.43-1.38 3.87-3.24 4.68 2.55.84 4.17 2.28 4.17 5.19 0 3.6-2.94 5.79-7.95 5.79h-10.83zm5.67-4.68h4.5c1.77 0 2.79-.69 2.79-1.98 0-1.14-.9-1.89-2.85-1.89h-4.44v3.87zm0-7.95h3.66c1.77 0 2.76-.6 2.76-1.89 0-1.14-.9-1.8-2.64-1.8h-3.78v3.69zM23.295 14.074a3.917 3.917 0 0 0 0 5.532 3.915 3.915 0 0 0 5.53 0 3.914 3.914 0 0 0 0-5.532 3.915 3.915 0 0 0-5.53 0M9.19 21.06a2.607 2.607 0 0 0 2.47 4.59 2.61 2.61 0 0 0 1.06-3.53 2.608 2.608 0 0 0-3.53-1.06"/>
        <path d="M39.002 22.766C39.4 18.602 41.79 2.921 24.235.208c0 0-14.66-2.553-21.99 10.213-4.409 7.994-1.165 14.317 0 17.112 1.163 2.796 6.11 6.503.697 19.361h21.782s.644-4.128 5.086-2.79c1.685.545 10.693 1.882 7.537-5.837.705.091 1.87-.7 1.655-2.4.857-.305 1.623-.852.766-2.22-.031-.639 0-1.672 0-1.672s7.078 1.094-.766-9.209zm-21.158 1.76l-.445 1.47a.255.255 0 0 1-.283.18l-.85-.117a1.403 1.403 0 0 0-1.266.48 1.373 1.373 0 0 0-.268 1.317l.246.779a.256.256 0 0 1-.125.302l-1.365.729a.26.26 0 0 1-.328-.072l-.517-.679a1.401 1.401 0 0 0-1.235-.55 1.4 1.4 0 0 0-1.13.744l-.382.723a.258.258 0 0 1-.302.127l-1.484-.442a.256.256 0 0 1-.183-.28l.084-.593a1.36 1.36 0 0 0-.15-.85 1.407 1.407 0 0 0-1.71-.657l-.57.2a.258.258 0 0 1-.313-.12l-.735-1.354a.253.253 0 0 1 .065-.319l.637-.516a1.392 1.392 0 0 0 .35-1.746 1.4 1.4 0 0 0-.633-.593l-.775-.365a.256.256 0 0 1-.136-.304l.446-1.473a.257.257 0 0 1 .274-.181l.818.082c.482.05.949-.147 1.247-.525.3-.378.382-.874.219-1.327l-.287-.802a.256.256 0 0 1 .121-.312l1.365-.728a.26.26 0 0 1 .322.064l.52.632a1.4 1.4 0 0 0 1.256.504c.482-.057.892-.35 1.1-.784l.37-.77a.26.26 0 0 1 .307-.135l1.484.443a.255.255 0 0 1 .183.271l-.109 1.05c-.028.28.026.556.158.798.32.59 1.018.872 1.66.672l1.014-.315a.26.26 0 0 1 .305.123l.735 1.353c.06.113.03.25-.072.326l-.685.512a1.382 1.382 0 0 0-.39 1.778c.132.242.334.44.585.57l.73.378c.11.058.163.184.127.301zm18.468-6.348c0 .177-.13.329-.307.355l-1.189.182a1.951 1.951 0 0 0-1.505 1.15 1.929 1.929 0 0 0 .175 1.876l.646.947a.358.358 0 0 1-.044.456l-1.535 1.523a.366.366 0 0 1-.47.035l-.97-.706a1.973 1.973 0 0 0-1.883-.242 1.952 1.952 0 0 0-1.215 1.45l-.218 1.122a.36.36 0 0 1-.356.292h-2.17a.362.362 0 0 1-.359-.304l-.129-.828a1.927 1.927 0 0 0-.546-1.082c-.597-.592-1.668-.85-2.564-.198l-.682.496a.364.364 0 0 1-.47-.035l-1.536-1.523a.36.36 0 0 1-.045-.456l.648-.947a1.95 1.95 0 0 0-1.33-3.026l-1.19-.181a.362.362 0 0 1-.306-.356v-2.154c0-.172.123-.32.294-.353l1.132-.216a1.95 1.95 0 0 0 1.461-1.205 1.926 1.926 0 0 0-.245-1.868l-.711-.963a.356.356 0 0 1 .036-.465l1.537-1.524a.363.363 0 0 1 .457-.043l.955.64c.563.379 1.27.442 1.892.174a1.944 1.944 0 0 0 1.158-1.493l.184-1.18a.36.36 0 0 1 .357-.303h2.172a.36.36 0 0 1 .356.29l.281 1.452c.076.387.261.736.536 1.01a1.99 1.99 0 0 0 2.502.238l1.234-.828a.365.365 0 0 1 .458.043l1.537 1.524a.354.354 0 0 1 .035.465l-.712.962a1.937 1.937 0 0 0 .2 2.542 1.95 1.95 0 0 0 1.018.532l1.132.216a.36.36 0 0 1 .294.353v2.154z"/>
    </g>
</svg>
