<svg xmlns="http://www.w3.org/2000/svg" width="129" height="129" viewBox="0 0 129 129">
    <defs>
        <radialGradient id="a" cx="17.784%" cy="16.69%" r="113.749%" fx="17.784%" fy="16.69%">
            <stop offset="0%" stop-color="#37CFB1"/>
            <stop offset="100%" stop-color="#FFF"/>
        </radialGradient>
        <linearGradient id="b" x1="10.268%" x2="58.617%" y1="87.903%" y2="22.999%">
            <stop offset="0%" stop-color="#37CFB1"/>
            <stop offset="100%" stop-color="#FDFFBF"/>
        </linearGradient>
    </defs>
    <g fill="none" fill-rule="evenodd">
        <path fill="url(#a)" d="M.505 64.59c0 35.395 28.692 64.086 64.085 64.086 35.394 0 64.086-28.691 64.086-64.085C128.676 29.197 99.984.504 64.59.504 29.197.504.505 29.197.505 64.591" transform="matrix(-1 0 0 1 129 0)"/>
        <path fill="url(#b)" d="M83.766 101.007l-67.482-75.57 4.931-8.36 7.072-6.315 7.805-3.014 67.484 75.569z" transform="matrix(-1 0 0 1 129 0)"/>
        <path fill="url(#b)" d="M27.617 11.36l-6.403 5.717-4.93 8.36 67.483 75.57 9.27-8.279C63.265 73.216 31.716 34.574 27.618 11.36" transform="matrix(-1 0 0 1 129 0)"/>
        <path fill="#37CFB1" d="M30.608 87.946l69.228-77.523.878.337.744.666-69.45 77.77zM107.785 17.077l.63 1.066-69.2 77.49-1.4-1.25 69.448-77.771z"/>
        <path fill="#FFEBC5" d="M45.234 101.007l-25.34 10.094c-.877.349-1.779-.451-1.534-1.363l7.064-26.421 7.24 3.442 7.402 6.61 5.168 7.638z"/>
        <path fill="#E4C399" d="M18.487 109.264c8.262-4.46 15.386-11.642 19.534-17.72l2.046 1.826 5.167 7.637-25.34 10.094c-.877.35-1.778-.451-1.534-1.363l.127-.474z"/>
        <path fill="#36311C" d="M18.36 109.738l2.444-9.14c3.295.367 6.377 2.75 8.533 6.742l-9.444 3.761a1.148 1.148 0 0 1-1.533-1.363"/>
    </g>
</svg>
