<svg xmlns="http://www.w3.org/2000/svg" xmlns:xlink="http://www.w3.org/1999/xlink" width="61" height="23" viewBox="0 0 61 23">
    <defs>
        <path id="a" d="M0 0h60.93v22.801H0z"/>
    </defs>
    <g fill="none" fill-rule="evenodd">
        <mask id="b" fill="#fff">
            <use xlink:href="#a"/>
        </mask>
        <path fill="#FF8C00" d="M14.906 19.991c1.898 0 3.957.667 6.237 2.735.228.207.532-.05.333-.308-2.24-2.896-4.312-3.447-6.378-3.913-2.527-.57-3.827-2.027-4.733-3.625-.18-.318-.261-.262-.277.147-.02.5.013 1.161.123 1.812-.102.005-.205.004-.308.004-3.615 0-6.546-3.001-6.546-6.703 0-3.702 2.93-6.703 6.546-6.703s6.546 3.001 6.546 6.703c0 .263-.012.523-.04.779-.48-.088-1.42-.098-2.08-.04-.248.022-.213.14-.026.175 2.164.4 3.651 1.774 3.99 4.266.009.057.082.074.111.025a10.275 10.275 0 0 0 1.402-5.205C19.806 4.54 15.372 0 9.903 0 4.433 0 0 4.54 0 10.14c0 5.6 4.434 10.14 9.903 10.14 1.451 0 2.89-.289 5.003-.289zm.737-3.681c.44.381.575.835.342 1.155-.13.175-.34.272-.592.272-.247 0-.499-.094-.674-.25-.4-.359-.518-.94-.256-1.27.102-.13.268-.2.467-.2.242 0 .495.104.713.293zm2.033-.969c.065.445-.072.629-.21.629-.15 0-.339-.18-.561-.536-.22-.35-.3-.753-.191-.957.071-.135.222-.193.412-.12.367.143.511.719.55.984zm13.728-2.322l-1.142-1.406c-.12-.147-.017-.37.17-.37h2.389c.113-.347.178-.718.178-1.103 0-1.76-1.28-3.28-3.038-3.28-1.757 0-3.038 1.52-3.038 3.28 0 1.762 1.28 3.259 3.038 3.259.532 0 1.02-.14 1.443-.38zm5.166 2.376a.222.222 0 0 1-.165.367h-2.607a.354.354 0 0 1-.274-.132l-.442-.544c-.9.597-1.971.946-3.121.946-3.173 0-5.754-2.643-5.754-5.892 0-3.248 2.581-5.891 5.754-5.891 3.173 0 5.754 2.643 5.754 5.891a5.957 5.957 0 0 1-.914 3.181l1.769 2.074zM60.647 4.52H58.52a.286.286 0 0 0-.282.29V15.47c0 .16.126.29.282.29h2.127c.157 0 .284-.13.284-.29V4.81c0-.16-.127-.29-.284-.29zm-3.579 0h-2.38a.284.284 0 0 0-.27.203l-1.884 6.3-2.07-6.307a.284.284 0 0 0-.268-.196h-1.661c-.122 0-.23.08-.269.196l-2.07 6.308-1.883-6.3a.283.283 0 0 0-.27-.204h-2.38a.282.282 0 0 0-.23.12.292.292 0 0 0-.039.258l3.496 10.667a.283.283 0 0 0 .269.197h1.889c.121 0 .23-.079.268-.196l2.05-6.233 2.049 6.233a.283.283 0 0 0 .268.196h1.89c.121 0 .23-.079.268-.197l3.496-10.667a.291.291 0 0 0-.04-.259.282.282 0 0 0-.229-.12zm-16.574.29V15.47c0 .16-.127.29-.283.29h-2.128a.286.286 0 0 1-.283-.29V4.81c0-.16.127-.29.283-.29h2.128c.156 0 .283.13.283.29z" mask="url(#b)"/>
    </g>
</svg>
