<svg xmlns="http://www.w3.org/2000/svg" width="10" height="10" viewBox="0 0 10 10">
    <path fill="#FFF" fill-rule="evenodd" d="M9.55 4.108a.661.661 0 0 0 .176-.696.688.688 0 0 0-.565-.462l-2.363-.332a.31.31 0 0 1-.233-.164L5.508.378A.698.698 0 0 0 4.881 0a.7.7 0 0 0-.629.378L3.196 2.454a.308.308 0 0 1-.233.164L.6 2.95a.688.688 0 0 0-.566.462.662.662 0 0 0 .178.696l1.71 1.614c.072.07.106.169.089.266l-.404 2.28c-.035.202.019.398.153.55.209.242.572.315.863.166l2.113-1.077a.323.323 0 0 1 .288 0L7.14 8.984A.709.709 0 0 0 8 8.819a.651.651 0 0 0 .153-.55L7.75 5.988a.295.295 0 0 1 .089-.266l1.71-1.614z"/>
</svg>
