<svg xmlns="http://www.w3.org/2000/svg" width="244" height="155" viewBox="0 0 244 155">
    <defs>
        <linearGradient id="a" x1="6.245%" x2="66.894%" y1="6.868%" y2="79.625%">
            <stop offset="0%" stop-color="#F2FCFB" stop-opacity="0"/>
            <stop offset="100%" stop-color="#FDFFBF"/>
        </linearGradient>
        <linearGradient id="b" x1="142.78%" x2="-1.105%" y1="0%" y2="100.16%">
            <stop offset="0%" stop-color="#37CFB1"/>
            <stop offset="100%" stop-color="#FDFFBF"/>
        </linearGradient>
    </defs>
    <g fill="none" fill-rule="evenodd">
        <path fill="url(#a)" d="M104.135 116.233c66.366-32.006 4.06-91.339 92.932-71.239 88.872 20.1 69.955 119.047-52.453 178.08-80.785 38.958-166.987-41.367-65.227-90.442" opacity=".55" transform="rotate(-152 123.73 110.033)"/>
        <g transform="translate(86 33)">
            <path fill="url(#b)" d="M13.994 0v.197c5.672 1.014 9.803 5.96 9.802 11.737v75c.007 5.782-4.125 10.735-9.802 11.75v.198h62.4c7.247 0 13.122-5.891 13.122-13.158V13.158C89.516 5.89 83.641 0 76.394 0h-62.4z" transform="translate(0 .658)"/>
            <g fill="#37CFB1">
                <path d="M23.796 12.592c0-5.777-4.13-10.723-9.802-11.737-.69-.129-1.39-.195-2.093-.197C5.328.658 0 6 0 12.592v4.895h23.796v-4.895zM0 87.572c0 6.591 5.328 11.935 11.901 11.935a11.575 11.575 0 0 0 2.093-.198c5.672-1.014 9.803-5.96 9.802-11.737V82.35H0v5.223z"/>
            </g>
            <rect width="69.053" height="16.283" x="33.585" y="52.467" fill="#FFF" rx="2"/>
            <path fill="#FFF" d="M111.349 8.324l4.273 4.284-7.326 7.346-4.272-4.285z"/>
            <path fill="#37CFB1" d="M104.335 13.242l6.379 6.396L85.43 44.992l-6.38-6.397zM75.082 49.52l-.55-.546 1.14-2.612 2.015 2.02z"/>
            <path fill="#FFF" d="M77.182 48.612l-1.745-1.744 3.608-8.263L85.422 45z"/>
            <path fill="#37CFB1" d="M120.458 3.47a4.529 4.529 0 0 1 0 6.393l-6.267 6.285-6.38-6.397 6.268-6.285a4.499 4.499 0 0 1 6.374 0l.005.005z"/>
            <rect width="42.698" height="2.789" x="34.018" y="15.276" fill="#FFF" rx="1.395"/>
            <rect width="34.307" height="2.789" x="34.018" y="24.888" fill="#FFF" rx="1.395"/>
            <rect width="34.307" height="2.789" x="34.018" y="34.5" fill="#FFF" rx="1.395"/>
            <rect width="34.307" height="2.789" x="34.018" y="44.112" fill="#FFF" rx="1.395"/>
            <rect width="42.698" height="2.789" x="34.018" y="85.007" fill="#FFF" rx="1.395"/>
            <rect width="34.307" height="2.789" x="34.018" y="75.474" fill="#FFF" rx="1.395"/>
            <rect width="8.037" height="2.789" x="39.923" y="59.138" fill="#37CFB1" rx="1.395"/>
            <rect width="44.03" height="2.789" x="51.844" y="59.138" fill="#37CFB1" rx="1.395"/>
        </g>
    </g>
</svg>
